HIERARCHY
ROOT Hips
{
    OFFSET 0.000 93.594 0.000
    CHANNELS 6 Xposition Yposition Zposition Yrotation Xrotation Zrotation
    JOINT RightHip
    {
        OFFSET -9.500 -1.594 0.000
        CHANNELS 3 Yrotation Xrotation Zrotation
        JOINT RightKnee
        {
            OFFSET 0.000 -42.000 0.000
            CHANNELS 3 Yrotation Xrotation Zrotation
            JOINT RightAnkle
            {
                OFFSET 0.000 -42.000 0.000
                CHANNELS 3 Yrotation Xrotation Zrotation
                End Site
                {
                    OFFSET 0.000 -8.000 17.500
                }
            }
        }
    }
    JOINT LeftHip
    {
        OFFSET 9.500 -1.594 0.000
        CHANNELS 3 Yrotation Xrotation Zrotation
        JOINT LeftKnee
        {
            OFFSET 0.000 -42.000 0.000
            CHANNELS 3 Yrotation Xrotation Zrotation
            JOINT LeftAnkle
            {
                OFFSET 0.000 -42.000 0.000
                CHANNELS 3 Yrotation Xrotation Zrotation
                End Site
                {
                    OFFSET 0.000 -8.000 17.500
                }
            }
        }
    }
    JOINT Chest
    {
        OFFSET 0.000 14.348 0.000
        CHANNELS 3 Yrotation Xrotation Zrotation
        JOINT Chest2
        {
            OFFSET 0.000 9.746 0.000
            CHANNELS 3 Yrotation Xrotation Zrotation
            JOINT Chest3
            {
                OFFSET 0.000 10.149 0.000
                CHANNELS 3 Yrotation Xrotation Zrotation
                JOINT Chest4
                {
                    OFFSET 0.000 9.746 0.000
                    CHANNELS 3 Yrotation Xrotation Zrotation
                    JOINT Neck
                    {
                        OFFSET 0.000 10.417 0.000
                        CHANNELS 3 Yrotation Xrotation Zrotation
                        JOINT Head
                        {
                            OFFSET 0.000 9.000 0.000
                            CHANNELS 3 Yrotation Xrotation Zrotation
                            End Site
                            {
                                OFFSET 0.000 16.000 0.000
                            }
                        }
                    }
                    JOINT RightCollar
                    {
                        OFFSET -3.200 6.945 0.000
                        CHANNELS 3 Yrotation Xrotation Zrotation
                        JOINT RightShoulder
                        {
                            OFFSET -12.800 0.000 0.000
                            CHANNELS 3 Yrotation Xrotation Zrotation
                            JOINT RightElbow
                            {
OFFSET -0 -27 0.000
						CHANNELS 3 Xrotation Yrotation Zrotation
                                JOINT RightWrist
                                {
OFFSET -0 -26 0.000
						CHANNELS 3 Xrotation Yrotation Zrotation
                                    JOINT RightFinger0
                                    {
OFFSET -0.196 -2.56 3.210
						CHANNELS 3 Xrotation Yrotation Zrotation
                                        JOINT RightFinger01
                                        {
OFFSET -0 -3.788 0.000
						CHANNELS 3 Xrotation Yrotation Zrotation
                                            JOINT RightFinger0Nub
                                            {
OFFSET -0 -2.631 0.000
						CHANNELS 3 Xrotation Yrotation Zrotation
                                                End Site
                                                {
OFFSET 0 -2.256 0
                                                }
                                            }
                                        }
                                    }
                                    JOINT RightFinger1
                                    {
OFFSET -0.523 -3.316 2.035
						CHANNELS 3 Xrotation Yrotation Zrotation
                                        JOINT RightFinger11
                                        {
OFFSET 0.094 -5.366 1.028
						CHANNELS 3 Xrotation Yrotation Zrotation
                                            JOINT RightFinger12
                                            {
OFFSET -0 -3.723 0.000
						CHANNELS 3 Xrotation Yrotation Zrotation
                                                JOINT RightFinger1Nub
                                                {
OFFSET -0 -2.111 0.000
						CHANNELS 3 Xrotation Yrotation Zrotation
                                                    End Site
                                                    {
OFFSET 0 -1.857 0
                                                    }
                                                }
                                            }
                                        }
                                    }
                                    JOINT RightFinger2
                                    {
OFFSET -0.532 -3.479 0.778
						CHANNELS 3 Xrotation Yrotation Zrotation
                                        JOINT RightFinger21
                                        {
OFFSET 0.086 -5.322 0.323
						CHANNELS 3 Xrotation Yrotation Zrotation
                                            JOINT RightFinger22
                                            {
OFFSET -0 -4.062 0.000
						CHANNELS 3 Xrotation Yrotation Zrotation
                                                JOINT RightFinger2Nub
                                                {
OFFSET -0 -2.547 0.000
						CHANNELS 3 Xrotation Yrotation Zrotation
                                                    End Site
                                                    {
OFFSET 0 -2.031 0
                                                    }
                                                }
                                            }
                                        }
                                    }
                                    JOINT RightFinger3
                                    {
OFFSET -0.553 -3.461 -0.133
						CHANNELS 3 Xrotation Yrotation Zrotation
                                        JOINT RightFinger31
                                        {
OFFSET 0.023 -4.767 -0.493
						CHANNELS 3 Xrotation Yrotation Zrotation
                                            JOINT RightFinger32
                                            {
OFFSET -0 -3.541 0.000
						CHANNELS 3 Xrotation Yrotation Zrotation
                                                JOINT RightFinger3Nub
                                                {
OFFSET -0 -2.456 0.000
						CHANNELS 3 Xrotation Yrotation Zrotation
                                                    End Site
                                                    {
OFFSET 0 -1.91 0
                                                    }
                                                }
                                            }
                                        }
                                    }
                                    JOINT RightFinger4
                                    {
OFFSET -0.483 -3.251 -1.236
						CHANNELS 3 Xrotation Yrotation Zrotation
                                        JOINT RightFinger41
                                        {
OFFSET 0.023 -4.259 -1.122
						CHANNELS 3 Xrotation Yrotation Zrotation
                                            JOINT RightFinger42
                                            {
OFFSET -0 -2.835 0.000
						CHANNELS 3 Xrotation Yrotation Zrotation
                                                JOINT RightFinger4Nub
                                                {
OFFSET -0 -1.792 0.000
						CHANNELS 3 Xrotation Yrotation Zrotation
                                                    End Site
                                                    {
OFFSET 0 -1.692 0
                                                    }
                                                }
                                            }
                                        }
                                    }
                                }
                            }
                        }
                    }
                    JOINT LeftCollar
                    {
                        OFFSET 3.200 6.945 0.000
                        CHANNELS 3 Yrotation Xrotation Zrotation
                        JOINT LeftShoulder
                        {
                            OFFSET 12.800 0.000 0.000
                            CHANNELS 3 Yrotation Xrotation Zrotation
                            JOINT LeftElbow
                            {
OFFSET -0 -27 0.000
						CHANNELS 3 Xrotation Yrotation Zrotation
                                JOINT LeftWrist
                                {
OFFSET -0 -26 0.000
						CHANNELS 3 Xrotation Yrotation Zrotation
                                    JOINT LeftFinger0
                                    {
OFFSET -0.196 -2.56 3.210
						CHANNELS 3 Xrotation Yrotation Zrotation
                                        JOINT LeftFinger01
                                        {
OFFSET -0 -3.788 0.000
						CHANNELS 3 Xrotation Yrotation Zrotation
                                            JOINT LeftFinger0Nub
                                            {
OFFSET -0 -2.631 0.000
						CHANNELS 3 Xrotation Yrotation Zrotation
                                                End Site
                                                {
OFFSET 0 -2.256 0
                                                }
                                            }
                                        }
                                    }
                                    JOINT LeftFinger1
                                    {
OFFSET -0.523 -3.316 2.035
						CHANNELS 3 Xrotation Yrotation Zrotation
                                        JOINT LeftFinger11
                                        {
OFFSET 0.094 -5.366 1.028
						CHANNELS 3 Xrotation Yrotation Zrotation
                                            JOINT LeftFinger12
                                            {
OFFSET -0 -3.723 0.000
						CHANNELS 3 Xrotation Yrotation Zrotation
                                                JOINT LeftFinger1Nub
                                                {
OFFSET -0 -2.111 0.000
						CHANNELS 3 Xrotation Yrotation Zrotation
                                                    End Site
                                                    {
OFFSET 0 -1.857 0
                                                    }
                                                }
                                            }
                                        }
                                    }
                                    JOINT LeftFinger2
                                    {
OFFSET -0.532 -3.479 0.778
						CHANNELS 3 Xrotation Yrotation Zrotation
                                        JOINT LeftFinger21
                                        {
OFFSET 0.086 -5.322 0.323
						CHANNELS 3 Xrotation Yrotation Zrotation
                                            JOINT LeftFinger22
                                            {
OFFSET -0 -4.062 0.000
						CHANNELS 3 Xrotation Yrotation Zrotation
                                                JOINT LeftFinger2Nub
                                                {
OFFSET -0 -2.547 0.000
						CHANNELS 3 Xrotation Yrotation Zrotation
                                                    End Site
                                                    {
OFFSET 0 -2.031 0
                                                    }
                                                }
                                            }
                                        }
                                    }
                                    JOINT LeftFinger3
                                    {
OFFSET -0.553 -3.461 -0.133
						CHANNELS 3 Xrotation Yrotation Zrotation
                                        JOINT LeftFinger31
                                        {
OFFSET 0.023 -4.767 -0.493
						CHANNELS 3 Xrotation Yrotation Zrotation
                                            JOINT LeftFinger32
                                            {
OFFSET -0 -3.541 0.000
						CHANNELS 3 Xrotation Yrotation Zrotation
                                                JOINT LeftFinger3Nub
                                                {
OFFSET -0 -2.456 0.000
						CHANNELS 3 Xrotation Yrotation Zrotation
                                                    End Site
                                                    {
OFFSET 0 -1.91 0
                                                    }
                                                }
                                            }
                                        }
                                    }
                                    JOINT LeftFinger4
                                    {
OFFSET -0.483 -3.251 -1.236
						CHANNELS 3 Xrotation Yrotation Zrotation
                                        JOINT LeftFinger41
                                        {
OFFSET 0.023 -4.259 -1.122
						CHANNELS 3 Xrotation Yrotation Zrotation
                                            JOINT LeftFinger42
                                            {
OFFSET -0 -2.835 0.000
						CHANNELS 3 Xrotation Yrotation Zrotation
                                                JOINT LeftFinger4Nub
                                                {
OFFSET -0 -1.792 0.000
						CHANNELS 3 Xrotation Yrotation Zrotation
                                                    End Site
                                                    {
OFFSET 0 -1.692 0
                                                    }
                                                }
                                            }
                                        }
                                    }
                                }
                            }
                        }
                    }
                }
            }
        }
    }
}
MOTION

Frames: 10
Frame Time: 0.017
-176.73 91.15 106.99 100.50 -4.95 -2.82 -13.01 1.11 -6.22 -0.00 25.39 -0.00 -45.09 -9.17 17.45 -24.15 -12.11 12.85 -0.00 28.84 -0.00 -2.05 -11.85 -10.79 -13.33 -1.40 4.13 -3.36 -0.24 0.99 -5.51 -0.20 1.64 0.48 3.08 -0.62 -3.40 51.92 -7.07 -12.95 35.67 -14.94 21.61 -0.36 -3.53 -2.45 -11.35 -15.04 -60.71 -21.05 49.58 -25.16 7.76 3.67 -44.86 -0 24.61 20.81 -0 -5.20 6.52 -0 0.00 0 -0 0.00 -15 -0 42.84 0 -0 55.94 0 -0 27.97 0 -0 0.00 0 -0 39.75 0 -0 39.75 0 -0 39.75 0 -0 0.00 15 -0 53.92 0 -0 53.92 0 -0 53.92 0 -0 0.00 25 -0 49.07 0 -0 49.07 0 -0 49.07 -15.68 -3.59 3.38 2.53 -31.52 39.66 -19.08 -14.05 -3.96 -1.98 16.62 4.11 -11.21 0 -41.25 -12.37 0 2.97 35.48 0 0.00 0.00 0 0.00 -15.00 0 -34.81 0.00 0 -43.63 0.00 0 -21.81 0.00 0 0.00 0.00 0 -43.73 0.00 0 -43.73 0.00 0 -43.73 0.00 0 0.00 15.00 0 -57.64 0.00 0 -57.64 0.00 0 -57.64 0.00 0 0.00 25.00 0 -41.98 0.00 0 -41.98 0.00 0 -41.98 
-176.65 91.09 106.67 100.50 -4.95 -2.82 -13.05 1.17 -6.47 0.00 25.34 -0.00 -44.96 -9.01 17.65 -24.23 -12.46 12.64 0.00 29.59 0.00 -2.00 -12.26 -10.54 -13.58 -1.37 4.02 -3.42 -0.24 0.96 -5.60 -0.20 1.59 0.50 3.06 -0.62 -3.45 51.74 -7.27 -12.55 35.82 -15.02 21.61 -0.37 -3.51 -2.47 -11.40 -14.9 -60.66 -21.07 49.68 -25.19 7.74 3.69 -44.87 -0 24.63 20.8 -0 -5.19 6.48 -0 0.00 0 -0 0.00 -15 -0 42.84 0 -0 55.83 0 -0 27.91 0 -0 0.00 0 -0 39.75 0 -0 39.75 0 -0 39.75 0 -0 0.00 15 -0 54.06 0 -0 54.06 0 -0 54.06 0 -0 0.00 25 -0 49.09 0 -0 49.09 0 -0 49.09 -15.65 -3.54 3.39 2.77 -31.49 39.88 -19.35 -13.95 -4.21 -1.91 16.62 4.08 -11.15 0 -41.25 -12.25 0 2.96 35.36 0 0.00 0.00 0 0.00 -15.00 0 -34.75 0.00 0 -43.67 0.00 0 -21.84 0.00 0 0.00 0.00 0 -43.68 0.00 0 -43.68 0.00 0 -43.68 0.00 0 0.00 15.00 0 -57.62 0.00 0 -57.62 0.00 0 -57.62 0.00 0 0.00 25.00 0 -41.98 0.00 0 -41.98 0.00 0 -41.98 
-176.61 91.08 106.43 100.50 -4.95 -2.82 -15.62 1.03 -7.26 -0.00 25.09 -0.00 -42.58 -9.29 17.59 -23.44 -12.76 12.56 -0.00 29.90 0.00 -2.48 -12.70 -10.47 -12.90 -0.21 3.09 -3.24 0.00 0.76 -5.31 0.13 1.26 0.43 3.07 -0.57 -3.00 50.91 -6.40 -11.16 35.32 -13.34 19.19 -1.69 -4.46 0.59 -10.88 -15.04 -58.87 -24.61 50.34 -26.4 10.5 4.32 -45.13 -0 25.95 20.28 -0 -3.87 4.07 -0 0.00 0 -0 0.00 -15 -0 43.38 0 -0 53.58 0 -0 26.79 0 -0 0.00 0 -0 39.27 0 -0 39.27 0 -0 39.27 0 -0 0.00 15 -0 53.46 0 -0 53.46 0 -0 53.46 0 -0 0.00 25 -0 49.74 0 -0 49.74 0 -0 49.74 -15.94 -4.09 4.17 -2.51 -30.16 42.39 -18.19 -10.63 -2.13 -3.29 16.26 3.76 -11.15 0 -41.20 -12.26 0 3.02 36.03 0 0.00 0.00 0 0.00 -15.00 0 -34.21 0.00 0 -44.19 0.00 0 -22.09 0.00 0 0.00 0.00 0 -43.03 0.00 0 -43.03 0.00 0 -43.03 0.00 0 0.00 15.00 0 -57.05 0.00 0 -57.05 0.00 0 -57.05 0.00 0 0.00 25.00 0 -41.26 0.00 0 -41.26 0.00 0 -41.26 
-176.57 91.04 106.27 100.50 -4.95 -2.82 -15.20 1.00 -7.28 -0.00 25.29 0.00 -42.96 -9.26 17.72 -23.21 -13.06 12.48 -0.00 30.39 -0.00 -2.79 -12.90 -10.30 -12.67 -0.32 3.24 -3.19 -0.02 0.80 -5.22 0.10 1.31 0.42 3.08 -0.56 -2.97 51.17 -6.22 -11.60 35.21 -13.31 19.18 -1.64 -4.41 0.42 -10.86 -15.17 -58.85 -24.59 50.47 -26.26 10.62 4.02 -45.21 -0 26.02 20.11 -0 -3.80 4.1 -0 0.00 0 -0 0.00 -15 -0 43.69 0 -0 53.33 0 -0 26.66 0 -0 0.00 0 -0 39.46 0 -0 39.46 0 -0 39.46 0 -0 0.00 15 -0 53.62 0 -0 53.62 0 -0 53.62 0 -0 0.00 25 -0 49.96 0 -0 49.96 0 -0 49.96 -15.95 -4.07 4.13 -2.14 -30.20 42.08 -18.57 -10.92 -2.50 -3.77 15.95 3.95 -11.16 0 -41.21 -12.27 0 3.01 36.08 0 0.00 0.00 0 0.00 -15.00 0 -34.23 0.00 0 -44.18 0.00 0 -22.09 0.00 0 0.00 0.00 0 -43.04 0.00 0 -43.04 0.00 0 -43.04 0.00 0 0.00 15.00 0 -57.06 0.00 0 -57.06 0.00 0 -57.06 0.00 0 0.00 25.00 0 -41.29 0.00 0 -41.29 0.00 0 -41.29 
-176.53 90.99 106.22 98.39 -3.85 -3.77 -12.71 0.01 -5.74 0.00 25.04 0.00 -43.38 -8.97 17.40 -21.42 -14.19 14.00 0.00 31.62 0.00 -3.03 -13.72 -10.16 -11.23 -0.96 4.22 -2.83 -0.16 1.03 -4.65 -0.10 1.70 0.40 3.10 -0.56 -2.94 51.38 -6.07 -12.01 35.11 -13.30 19.31 -1.64 -4.33 0.21 -10.81 -15.35 -58.82 -24.61 50.57 -24.02 6.41 5.75 -45.1 -0 25.82 20.35 -0 -4.00 4.12 -0 0.00 0 -0 0.00 -15 -0 41.14 0 -0 53.06 0 -0 26.53 0 -0 0.00 0 -0 38.05 0 -0 38.05 0 -0 38.05 0 -0 0.00 15 -0 52.31 0 -0 52.31 0 -0 52.31 0 -0 0.00 25 -0 47.64 0 -0 47.64 0 -0 47.64 -15.90 -4.07 4.09 -1.71 -30.30 41.79 -16.65 -11.76 -2.81 -6.71 16.09 4.53 -11.16 0 -41.21 -12.27 0 3.00 36.19 0 0.00 0.00 0 0.00 -15.00 0 -34.63 0.00 0 -43.46 0.00 0 -21.73 0.00 0 0.00 0.00 0 -43.05 0.00 0 -43.05 0.00 0 -43.05 0.00 0 0.00 15.00 0 -57.10 0.00 0 -57.10 0.00 0 -57.10 0.00 0 0.00 25.00 0 -41.37 0.00 0 -41.37 0.00 0 -41.37 
-176.46 90.96 106.22 98.89 -4.04 -3.81 -12.81 0.31 -5.70 -0.00 25.14 -0.00 -43.77 -9.01 17.50 -21.49 -14.19 13.97 0.00 31.82 0.00 -3.54 -13.81 -10.07 -11.35 -0.92 4.32 -2.86 -0.15 1.06 -4.70 -0.08 1.75 0.39 3.11 -0.56 -2.92 51.57 -5.93 -12.40 35.01 -13.30 19.45 -1.64 -4.24 0.02 -10.78 -15.54 -58.81 -24.67 50.66 -24.05 6.44 5.74 -45.1 -0 25.79 20.34 -0 -4.03 4.14 -0 0.00 0 -0 0.00 -15 -0 41.16 0 -0 52.84 0 -0 26.42 0 -0 0.00 0 -0 38.08 0 -0 38.08 0 -0 38.08 0 -0 0.00 15 -0 52.33 0 -0 52.33 0 -0 52.33 0 -0 0.00 25 -0 47.68 0 -0 47.68 0 -0 47.68 -15.82 -4.09 4.07 -1.34 -30.38 41.55 -17.76 -12.32 -3.21 -6.54 16.25 4.55 -11.16 0 -41.21 -12.27 0 3.00 36.28 0 0.00 0.00 0 0.00 -15.00 0 -35.02 0.00 0 -43.20 0.00 0 -21.60 0.00 0 0.00 0.00 0 -43.05 0.00 0 -43.05 0.00 0 -43.05 0.00 0 0.00 15.00 0 -57.12 0.00 0 -57.12 0.00 0 -57.12 0.00 0 0.00 25.00 0 -41.42 0.00 0 -41.42 0.00 0 -41.42 
-176.42 90.93 106.28 99.39 -4.25 -3.87 -12.98 0.62 -5.63 -0.00 25.24 -0.00 -44.12 -9.09 17.58 -21.45 -14.15 13.99 0.00 31.95 0.00 -4.14 -13.86 -9.98 -11.64 -0.78 4.30 -2.93 -0.12 1.05 -4.81 -0.02 1.74 0.39 3.11 -0.56 -2.92 51.57 -5.93 -12.40 35.01 -13.30 19.84 -1.73 -4.00 -0.13 -10.78 -15.72 -58.79 -24.72 50.73 -24.44 6.23 6.29 -44.93 -0 25.58 20.69 -0 -4.24 4.17 -0 0.00 0 -0 0.00 -15 -0 40.55 0 -0 56.81 0 -0 28.41 0 -0 0.00 0 -0 37.76 0 -0 37.76 0 -0 37.76 0 -0 0.00 15 -0 52.04 0 -0 52.04 0 -0 52.04 0 -0 0.00 25 -0 47.28 0 -0 47.28 0 -0 47.28 -15.45 -4.10 4.24 -1.09 -30.37 41.4 -20.32 -13.07 -3.59 -4.87 16.81 4.30 -11.15 0 -41.20 -12.26 0 3.01 36.42 0 0.00 0.00 0 0.00 -15.00 0 -35.03 0.00 0 -43.20 0.00 0 -21.60 0.00 0 0.00 0.00 0 -43.06 0.00 0 -43.06 0.00 0 -43.06 0.00 0 0.00 15.00 0 -57.12 0.00 0 -57.12 0.00 0 -57.12 0.00 0 0.00 25.00 0 -41.64 0.00 0 -41.64 0.00 0 -41.64 
-176.40 90.90 106.35 99.84 -4.43 -3.91 -13.19 0.83 -5.58 0.00 25.39 -0.00 -44.38 -9.18 17.64 -21.39 -14.14 14.03 -0.00 32.02 -0.00 -4.74 -13.85 -9.91 -11.91 -0.67 4.27 -3.00 -0.09 1.05 -4.92 0.02 1.73 0.39 3.11 -0.56 -2.92 51.57 -5.93 -12.40 35.01 -13.30 20.22 -1.82 -3.77 -0.28 -10.81 -15.89 -58.74 -24.74 50.79 -24.48 6.24 6.27 -44.93 -0 25.55 20.69 -0 -4.27 4.21 -0 0.00 0 -0 0.00 -15 -0 40.54 0 -0 56.79 0 -0 28.40 0 -0 0.00 0 -0 37.79 0 -0 37.79 0 -0 37.79 0 -0 0.00 15 -0 52.06 0 -0 52.06 0 -0 52.06 0 -0 0.00 25 -0 47.32 0 -0 47.32 0 -0 47.32 -15.10 -4.09 4.40 -0.96 -30.28 41.28 -21.40 -13.36 -3.88 -4.68 16.87 4.39 -11.14 0 -41.21 -12.23 0 3.00 36.54 0 0.00 0.00 0 0.00 -15.00 0 -35.11 0.00 0 -43.17 0.00 0 -21.58 0.00 0 0.00 0.00 0 -43.07 0.00 0 -43.07 0.00 0 -43.07 0.00 0 0.00 15.00 0 -57.10 0.00 0 -57.10 0.00 0 -57.10 0.00 0 0.00 25.00 0 -41.87 0.00 0 -41.87 0.00 0 -41.87 
-176.40 90.87 106.42 100.24 -4.59 -3.93 -13.34 1.00 -5.54 -0.00 25.56 -0.00 -44.65 -9.27 17.71 -21.43 -14.12 14.04 -0.00 32.08 -0.00 -5.12 -13.80 -9.89 -11.98 -0.64 4.36 -3.01 -0.08 1.07 -4.95 0.04 1.77 0.37 3.12 -0.55 -2.89 51.74 -5.79 -12.77 34.91 -13.30 20.31 -1.78 -3.73 -0.45 -10.84 -16.02 -58.69 -24.71 50.88 -24.53 6.27 6.23 -44.92 -0 25.52 20.7 -0 -4.30 4.27 -0 0.00 0 -0 0.00 -15 -0 40.55 0 -0 57.33 0 -0 28.67 0 -0 0.00 0 -0 37.67 0 -0 37.67 0 -0 37.67 0 -0 0.00 15 -0 52.08 0 -0 52.08 0 -0 52.08 0 -0 0.00 25 -0 47.34 0 -0 47.34 0 -0 47.34 -15.02 -4.09 4.31 -0.96 -30.10 41.18 -22.41 -13.63 -4.01 -4.55 16.91 4.51 -11.13 0 -41.23 -12.21 0 2.98 36.68 0 0.00 0.00 0 0.00 -15.00 0 -34.39 0.00 0 -43.77 0.00 0 -21.88 0.00 0 0.00 0.00 0 -43.14 0.00 0 -43.14 0.00 0 -43.14 0.00 0 0.00 15.00 0 -57.16 0.00 0 -57.16 0.00 0 -57.16 0.00 0 0.00 25.00 0 -41.99 0.00 0 -41.99 0.00 0 -41.99 
-176.41 90.85 106.49 100.64 -4.73 -3.90 -13.49 1.11 -5.54 -0.00 25.77 -0.00 -44.91 -9.36 17.77 -21.50 -14.10 14.00 0.00 32.07 0.00 -5.47 -13.71 -9.89 -12.03 -0.62 4.42 -3.03 -0.07 1.09 -4.97 0.05 1.79 0.36 3.14 -0.55 -2.86 51.92 -5.64 -13.14 34.80 -13.27 20.40 -1.78 -3.69 -0.67 -10.84 -16.15 -58.64 -24.64 50.94 -24.57 6.29 6.18 -44.91 -0 25.49 20.72 -0 -4.33 4.29 -0 0.00 0 -0 0.00 -15 -0 40.57 0 -0 57.25 0 -0 28.62 0 -0 0.00 0 -0 37.55 0 -0 37.55 0 -0 37.55 0 -0 0.00 15 -0 52.11 0 -0 52.11 0 -0 52.11 0 -0 0.00 25 -0 47.38 0 -0 47.38 0 -0 47.38 -14.98 -4.08 4.24 -0.98 -29.94 41.09 -23.37 -13.93 -4.09 -4.45 16.99 4.58 -11.12 0 -41.26 -12.19 0 2.96 36.74 0 0.00 0.00 0 0.00 -15.00 0 -34.47 0.00 0 -43.77 0.00 0 -21.89 0.00 0 0.00 0.00 0 -43.22 0.00 0 -43.22 0.00 0 -43.22 0.00 0 0.00 15.00 0 -57.19 0.00 0 -57.19 0.00 0 -57.19 0.00 0 0.00 25.00 0 -42.06 0.00 0 -42.06 0.00 0 -42.06 
